# xmcd CD database file
#
# Track frame offsets:
#	150
#	26100
#	44325
#	59775
#	83400
#	108825
#	135450
#	153300
#	174900
#
# Disc length: 2655 seconds
#
# Revision: 1
# Processed by: cddbd v1.5.1PL0 Copyright (c) Steve Scherf et al.
# Submitted via: freeDBTagger 0.5
#
DISCID=6a0a5d09
DTITLE=上戸彩 - UETOAYAMIX
DYEAR=2005
DGENRE=blues
TTITLE0=あふれそうな愛、抱いて−DJ TASAKA−
TTITLE1=愛のために。−Cloudberry Jam−
TTITLE2=風−Home Grown−
TTITLE3=Hello−Reggae Disco Rockers−
TTITLE4=ウソツキ−Jazztronik−
TTITLE5=MESSAGE−Incognito−
TTITLE6=微熱−DJ Watarai−
TTITLE7=あの人に会いたい−Towa Tei−
TTITLE8=愛のために。−KREVA−
EXTD=
EXTT0=
EXTT1=
EXTT2=
EXTT3=
EXTT4=
EXTT5=
EXTT6=
EXTT7=
EXTT8=
PLAYORDER=
